<svg xmlns="http://www.w3.org/2000/svg" viewBox="0 0 512.001 512.001" style="enable-background:new 0 0 512.001 512.001" xml:space="preserve"><path style="fill:#c39b6e" d="M363.356 74.323C407.399 74.323 404.646 0 464.473 0c36.473 0 59.183 35.785 41.29 74.323-13.911 29.96-33.032 66.065-24.774 90.839L363.356 74.323zM148.645 74.323C104.602 74.323 107.355 0 47.528 0 11.056 0-11.654 35.785 6.238 74.323c13.911 29.96 33.032 66.065 24.774 90.839l117.633-90.839z"/><path style="fill:#aa825a" d="M256.001 41.29C114.615 41.29 0 115.613 0 297.291c0 140.387 114.615 214.71 256.001 214.71s256.001-74.323 256.001-214.71C512 115.613 397.385 41.29 256.001 41.29z"/><path style="fill:#8c705c" d="M256.001 82.581c-91.217 0-198.194 58.676-198.194 202.105 0 110.833 88.734 169.508 198.194 169.508s198.194-58.676 198.194-169.507c-.001-143.43-106.979-202.106-198.194-202.106z"/><path style="fill:#7c665d" d="M220.251 272.517c-4.96-16.735-15.819-49.548-47.457-49.548-23.729 0-92.525 50.321-110.734 107.355-15.819 49.548 78.327 132.129 166.101 132.129 42.656 0 5.547-144.531-7.91-189.936zM292.081 272.517c4.96-16.735 15.819-49.548 47.457-49.548 23.729 0 92.525 50.321 110.734 107.355 15.819 49.548-78.327 132.129-166.101 132.129-42.655 0-5.545-144.531 7.91-189.936z"/><path style="fill:#c39b6e" d="M189.936 421.162c0 26.604 43.261 49.548 66.065 49.548 22.804 0 66.065-22.944 66.065-49.548h-132.13z"/><path style="fill:#d7b487" d="M273.813 256.001h-35.626a24.72 24.72 0 0 0-22.229 13.83c-16.545 33.698-47.421 120.167-34.28 159.589 7.386 22.159 57.807 0 74.323 0s66.937 22.159 74.323 0c13.141-39.422-17.735-125.891-34.28-159.589a24.722 24.722 0 0 0-22.231-13.83z"/><circle style="fill:#464655" cx="173.42" cy="256.001" r="16.516"/><circle style="fill:#464655" cx="338.581" cy="256.001" r="16.516"/><ellipse style="fill:#464655" cx="256.001" cy="371.614" rx="41.29" ry="33.032"/></svg>