<svg xmlns="http://www.w3.org/2000/svg" width="200" height="200"><path fill="#ef414b" d="m169.28 122.028-54.934-95.592 21.323-12.288 54.934 95.411Z"/><path fill="#f89634" d="m154.824 146.061-66.86-115.83 21.323-12.288 66.86 115.83Z"/><path fill="#ffc73a" d="M138.56 167.384 57.607 26.978 78.929 14.69l80.954 140.226Z"/><path fill="#00a95d" d="M117.238 179.672 38.09 42.338 59.413 30.05l79.148 137.334Z"/><path fill="#0076b5" d="M85.615 174.07 24.175 67.455l21.143-12.287 61.62 106.614Z"/><path fill="#9e4198" d="M58.69 176.78 10.804 93.839 32.307 81.55l47.706 82.762Z"/><path fill="#79340e" d="m134.946 39.266 35.057 60.716-35.057 60.716H64.834L29.777 99.982l35.057-60.716h70.112m14.999-26.202H49.655L-.4 99.982 49.655 186.9h100.29L200 99.982c.18 0-50.055-86.918-50.055-86.918Z"/><path fill="#ffc73a" d="M129.164 99.26c0 15.368-12.46 27.827-27.828 27.827-15.37 0-27.829-12.459-27.829-27.828s12.46-27.828 27.829-27.828 27.828 12.459 27.828 27.828Z"/><path d="M133.32 80.647c-10.3-17.71-32.888-23.672-50.416-13.372-17.709 10.3-23.672 32.888-13.372 50.416 10.12 17.528 32.707 23.672 50.416 13.553 17.528-10.3 23.491-32.708 13.372-50.597 0 .18 0 0 0 0Zm-49.512-3.072 27.466 47.525c-2.71 1.084-5.42 1.626-8.312 1.807L78.025 84.08c1.626-2.53 3.433-4.698 5.783-6.505Zm-6.506 35.598c-3.252-5.602-4.337-12.107-3.433-18.431l17.709 30.538c-6.144-2.349-11.204-6.686-14.276-12.107Zm41.562 7.59L91.397 73.238c2.53-1.084 5.421-1.626 8.132-1.807l24.937 43.188c-1.446 2.168-3.434 4.337-5.602 6.144Z"/><path fill="#fff" d="M119.767 77.033a2.53 2.53 0 1 1-5.06 0 2.53 2.53 0 0 1 5.06 0Zm11.023 19.516a2.53 2.53 0 1 1-5.06 0 2.53 2.53 0 0 1 5.06 0Z"/></svg>