<svg xmlns="http://www.w3.org/2000/svg" viewBox="0 0 512 512" style="enable-background:new 0 0 512 512" xml:space="preserve"><path style="fill:#ffa54b" d="M472.001 384s-16.667-74.667-64-128c-7.135-8.04 28-248 8-248-31 0-68 86-128 136l.52 6.842c-9.029-4.951-19.864-7.842-31.52-7.842-12.572 0-24.187 3.363-33.611 9.048l.611-8.048c-60-50-97-136-128-136-20 0 15.136 239.96 8 248-47.333 53.333-64 128-64 128s30-4.75 40 0l-8 24s88 25.75 127.415 59.595l.861-.438c4.724 4.843 13.539 8.674 23.724 12.843 7.617 3.118 23.917-9 33-9 8.947 0 20.468 10.032 28 7 9.189-3.699 19-4 25.506-11.31l2.079.904C352.001 433.75 440.001 408 440.001 408l-8-24c10-4.75 40 0 40 0z"/><path style="fill:#ffcd9b" d="M222.001 475.999c0 15.465 15.223 28.001 34 28.001 18.778 0 34-12.536 34-28.001h-68z"/><path style="fill:#464655" d="M280.001 432c0 13.255-24 24-24 24s-24-10.745-24-24 10.745-24 24-24 24 10.745 24 24z"/><path style="fill:#ff8c46" d="M96.001 16c12 21.333 80 152 80 152l-40-8s16 28 16 40c0 15.5-16 24-16 24M416.001 16c-12 21.333-80 152-80 152l40-8s-16 28-16 40c0 15.5 16 24 16 24"/><path style="fill:#ffdeb7" d="M256.001 472c38.5 21 69-16 90.5-28.157 22.632-12.798 74.5-25.843 90.5-35.843l-2-22.829 34-3.171s-50.296-54.442-114-16c-58 35-99 106-99 106zM255.001 473c-38.5 21-69-16-90.5-28.157-22.632-12.798-74.5-25.843-90.5-35.843l2-22.829-34-3.171s50.296-54.442 114-16c58 35 99 106 99 106z"/><path d="M192.001 304c-8.822 0-16 7.178-16 16s7.178 16 16 16 16-7.178 16-16-7.178-16-16-16zM320.001 304c-8.822 0-16 7.178-16 16s7.178 16 16 16 16-7.178 16-16-7.178-16-16-16z"/><path d="M478.44 388.743c.028-.039.053-.079.081-.118.15-.211.289-.428.416-.649.037-.064.071-.13.106-.195.111-.208.212-.419.305-.634.029-.068.059-.136.086-.205.096-.243.18-.489.251-.738.011-.039.025-.076.036-.115a7.99 7.99 0 0 0 .184-.877c.01-.068.014-.136.023-.205.029-.224.049-.45.059-.677.004-.098.004-.196.005-.294a8.366 8.366 0 0 0-.022-.633c-.006-.089-.011-.177-.021-.266a8.16 8.16 0 0 0-.14-.879 1.717 1.717 0 0 0-.016-.069c-.865-3.854-17.644-76.356-64.658-130.191-.952-8.661 2.655-47.012 5.854-81.018 3.156-33.553 6.733-71.584 8.355-102.381 2.713-51.515-1.356-60.549-5.384-64.974C421.833 1.287 419.006 0 416.001 0c-20.689 0-38.958 24.669-64.243 58.813-19.291 26.05-41.124 55.501-67.532 77.884-7.813-1.097-17.699-1.697-28.225-1.697s-20.412.6-28.225 1.697c-26.409-22.383-48.242-51.834-67.533-77.884C134.959 24.669 116.69 0 96.001 0c-3.005 0-5.832 1.287-7.959 3.625-4.028 4.424-8.098 13.459-5.384 64.974 1.622 30.797 5.199 68.828 8.355 102.381 3.199 34.005 6.806 72.357 5.854 81.018-47.014 53.835-63.792 126.337-64.658 130.191l-.016.069a8.48 8.48 0 0 0-.141.88c-.009.088-.014.176-.021.265a7.874 7.874 0 0 0 .041 1.6c.009.07.013.141.024.211.045.293.105.584.183.872l.042.135c.07.242.15.479.243.714.03.075.063.149.095.224.089.208.187.41.294.611.039.071.076.143.116.213.123.213.256.419.399.622.034.048.063.097.098.144.182.246.378.485.591.712l.013.016c.029.031.063.057.093.087.147.151.295.302.457.444.033.029.068.053.101.081.067.058.138.11.207.166.172.138.349.267.529.388.068.045.136.092.206.135.242.152.488.292.74.415l.019.01c.274.132.553.245.837.345.054.019.108.034.163.051a7.714 7.714 0 0 0 .907.239 8.227 8.227 0 0 0 .887.131c.227.019.454.029.682.029.048 0 .097-.007.145-.007.119-.002.238-.011.357-.019.192-.012.382-.03.573-.055.06-.008.12-.008.18-.017 9.381-1.486 20.78-2.309 28.313-1.893l-5.153 15.461a7.999 7.999 0 0 0 5.342 10.207c.86.252 86.23 25.48 124.084 57.68a49.404 49.404 0 0 0 9.767 7.62c4.122 2.447 8.547 4.192 13.17 5.289 3.652 14.657 19.85 25.736 39.225 25.736 19.376 0 35.573-11.08 39.225-25.734 4.624-1.096 9.049-2.841 13.17-5.289a49.477 49.477 0 0 0 9.768-7.62c37.821-32.172 123.224-57.428 124.084-57.68a7.996 7.996 0 0 0 5.341-10.207l-5.161-15.483c7.551-.426 18.942.434 28.322 1.915.058.009.116.008.175.016.196.027.392.044.59.056.111.007.223.016.334.018.051.001.102.008.153.008.531 0 1.062-.058 1.585-.164l.174-.039c.251-.057.499-.125.745-.206.041-.014.082-.025.122-.039a7.933 7.933 0 0 0 1.619-.781c.062-.039.122-.079.182-.119.189-.127.375-.263.556-.408.063-.05.125-.098.187-.149.035-.03.072-.055.106-.085a8.14 8.14 0 0 0 .489-.475c.02-.021.042-.038.062-.059.003-.002.005-.007.008-.01.221-.231.419-.473.603-.723zM256.001 496c-9.114 0-17.23-3.598-21.278-8.733 6.987-.791 14.161-2.887 21.278-6.286 7.118 3.399 14.291 5.495 21.278 6.286-4.048 5.135-12.165 8.733-21.278 8.733zm.002-48.913c-7.417-3.971-16.002-10.576-16.002-15.087 0-8.822 7.178-16 16-16s16 7.178 16 16c0 4.159-7.891 10.765-15.998 15.087zm172.565-70.313a8 8 0 0 0-4.157 9.756l5.411 16.233c-17.763 5.644-61.459 20.527-95.863 40.42 1.341-5.984 2.042-12.408 2.042-19.183 0-16.681 3.511-38.761 20.24-49.216a8 8 0 0 0 2.544-11.023 7.998 7.998 0 0 0-11.024-2.544c-18.161 11.349-27.76 33.06-27.76 62.783 0 16.11-4.679 29.451-13.058 37.936a7.848 7.848 0 0 0-.283.295 33.334 33.334 0 0 1-6.431 4.989c-10.152 6.026-22.885 5.917-36.228-.174v-6.088c8.563-4.605 24-14.861 24-28.958 0-17.645-14.355-32-32-32s-32 14.355-32 32c0 14.097 15.438 24.353 24 28.958v6.088c-13.344 6.092-26.077 6.201-36.228.174a33.334 33.334 0 0 1-6.431-4.989 7.848 7.848 0 0 0-.283-.295c-8.379-8.485-13.058-21.826-13.058-37.936 0-29.723-9.599-51.434-27.76-62.784a7.998 7.998 0 0 0-11.024 2.544 8 8 0 0 0 2.544 11.023c16.729 10.456 20.24 32.536 20.24 49.217 0 6.775.701 13.199 2.042 19.183-34.404-19.893-78.1-34.776-95.863-40.42l5.411-16.233a8 8 0 0 0-4.157-9.756c-4.674-2.22-11.92-2.902-19.271-2.872 25.466-15.955 54.442-15.479 62.407-14.031 4.349.793 8.511-2.093 9.302-6.44a8 8 0 0 0-6.44-9.302c-11.596-2.109-44.909-2.086-74.224 16.501 8.78-25.869 25.977-66.871 54.776-99.32 4.295-4.839 4.46-12.077-3.042-91.828-3.05-32.422-6.506-69.169-8.169-99.174-.834-15.048-1.074-26.096-.988-34.219 16.646 31.194 48.691 92.575 63.401 120.791l-23.616-4.724a8.001 8.001 0 0 0-8.515 11.813c6.206 10.861 14.946 29.219 14.946 36.031 0 10.395-11.675 16.892-11.753 16.936a8 8 0 1 0 7.507 14.129c.826-.439 20.246-10.987 20.246-31.065 0-7.702-4.663-19.375-9.181-28.878l23.612 4.723a8.002 8.002 0 0 0 8.666-11.539c-2.495-4.793-55.448-106.532-74.895-142.654 11.257 8.974 24.937 27.446 39.182 46.682 20.156 27.218 43 58.068 71.494 81.811a7.95 7.95 0 0 0 3.263 1.628 7.96 7.96 0 0 0 5.554 1.118c7.22-1.201 17.536-1.891 28.305-1.891 10.769 0 21.085.69 28.305 1.892a7.967 7.967 0 0 0 5.559-1.119 7.948 7.948 0 0 0 3.258-1.627c28.494-23.743 51.338-54.593 71.494-81.811 14.245-19.236 27.925-37.708 39.182-46.682-19.446 36.123-72.4 137.861-74.895 142.654a8.002 8.002 0 0 0 8.666 11.539l23.612-4.723c-4.518 9.502-9.181 21.175-9.181 28.877 0 20.078 19.42 30.626 20.247 31.065a7.999 7.999 0 0 0 10.819-3.312 7.999 7.999 0 0 0-3.312-10.817c-.118-.063-11.754-6.536-11.754-16.936 0-6.797 8.74-25.162 14.947-36.031a8.003 8.003 0 0 0-8.516-11.814l-23.616 4.724c14.709-28.216 46.755-89.596 63.401-120.791.086 8.124-.153 19.171-.988 34.219-1.663 30.005-5.12 66.752-8.169 99.174-7.502 79.751-7.337 86.989-3.042 91.829 28.746 32.39 45.96 73.417 54.758 99.309-29.312-18.576-62.616-18.599-74.206-16.49a8 8 0 0 0-6.44 9.302c.791 4.347 4.954 7.234 9.302 6.44 7.963-1.447 36.94-1.923 62.406 14.032-7.35-.031-14.596.651-19.27 2.871z"/></svg>