<svg xmlns="http://www.w3.org/2000/svg" viewBox="0 0 512.001 512.001" style="enable-background:new 0 0 512.001 512.001" xml:space="preserve"><path style="fill:#96695f" d="M215.366 89.397C190.985 40.635 182.858 0 166.604 0c-8.127 0-32.508 24.381-32.508 56.889 0 16.254 8.127 81.27 24.381 105.651l56.889-73.143zM296.636 89.397C321.017 40.635 329.144 0 345.398 0c8.127 0 32.508 24.381 32.508 56.889 0 16.254-8.127 81.27-24.381 105.651l-56.889-73.143z"/><path style="fill:#cd916e" d="M360.92 162.54c-8.07-40.635-56.495-97.524-104.92-97.524-48.762 0-97.524 56.889-105.651 97.524-4.508 22.54 33.75 175.637 48.762 235.683 8.127 32.508 8.127 56.889 8.127 56.889h97.187s0-24.381 8.071-56.889c14.907-60.046 52.901-213.143 48.424-235.683z"/><path style="fill:#e1a178" d="M256.001 268.191c-17.954 0-32.508 14.554-32.508 32.508v138.159h65.016V300.699c0-17.954-14.555-32.508-32.508-32.508z"/><path style="fill:#96695f" d="M301.217 423.99c-2.742-13.104-19.065-19.032-28.717-9.755-.083.08-.165.161-.246.242-8.127 8.127-16.254 8.127-16.254 8.127s-8.127 0-16.254-8.127a28.069 28.069 0 0 0-.246-.242c-9.652-9.277-25.975-3.348-28.717 9.755-1.846 8.819-3.545 19.97-3.545 31.122 0 24.381 8.127 56.889 48.762 56.889s48.762-32.508 48.762-56.889c.001-11.152-1.7-22.303-3.545-31.122z"/><path style="fill:#6e575a" d="M239.738 471.366a8.129 8.129 0 0 1-3.627-.857c-20.167-10.08-20.746-36.77-20.746-39.778 0-4.492 3.635-8.127 8.127-8.127s8.127 3.635 8.127 8.127c0 .191.135 19.429 11.762 25.238a8.126 8.126 0 0 1-3.643 15.397zM272.263 471.366c1.222 0 2.46-.277 3.627-.857 20.166-10.08 20.746-36.77 20.746-39.778a8.122 8.122 0 0 0-8.127-8.127 8.122 8.122 0 0 0-8.127 8.127c0 .191-.135 19.429-11.762 25.238a8.126 8.126 0 0 0 3.643 15.397z"/><circle style="fill:#464655" cx="329.144" cy="203.175" r="16.254"/><circle style="fill:#464655" cx="182.858" cy="203.175" r="16.254"/><path style="fill:#6e575a" d="M256.001 495.747c-19.89 0-33.898-4.404-43.713-11.156 6.077 15.121 18.743 27.41 43.713 27.41 24.97 0 37.636-12.289 43.713-27.41-9.817 6.751-23.824 11.156-43.713 11.156z"/><path style="fill:#96695f" d="M173.207 137.651s25.905-2.54 60.952-43.175l-6.603 23.365s50.794-4.063 69.587-23.365l-3.048 14.73c24.381-4.063 32-11.683 32-11.683s-19.302-34.54-69.587-41.143L256 65.015s-17.27-11.683-44.191-9.651l3.556 9.651-24.381 8.127-17.777 64.509z"/></svg>