<svg xmlns="http://www.w3.org/2000/svg" data-name="Layer 1" viewBox="0 0 197.13 86.84"><path d="M6.03 25.98a6 6 0 0 1 4.21 1.58 4.93 4.93 0 0 1 0 7.52 5.94 5.94 0 0 1-4.21 1.57 6.05 6.05 0 0 1-4.29-1.57 4.93 4.93 0 0 1 0-7.52 6.16 6.16 0 0 1 4.29-1.58Zm0 19.72a7.7 7.7 0 0 1 3.91.95 2.78 2.78 0 0 1 1.62 2.46v33.48a3 3 0 0 1-1.62 2.38 6.72 6.72 0 0 1-3.91 1.11 6.51 6.51 0 0 1-3.89-1.11 3 3 0 0 1-1.53-2.38V49.1a2.79 2.79 0 0 1 1.53-2.45 7.45 7.45 0 0 1 3.89-.95ZM30.94 72.31a4.82 4.82 0 0 0 1 3.48c.68.68 1.92 1 3.74 1h3.31a4.25 4.25 0 0 1 3.53 1.45 5 5 0 0 1 1.15 3.14 5.09 5.09 0 0 1-1.13 3.27 4.22 4.22 0 0 1-3.53 1.45H35.7q-7.74 0-11.73-3.27t-4-10.5V31.08a2.77 2.77 0 0 1 1.74-2.43 7.76 7.76 0 0 1 3.7-1 7.87 7.87 0 0 1 3.83 1 2.78 2.78 0 0 1 1.7 2.46V45.7h10a2.28 2.28 0 0 1 2.08 1.28 5.45 5.45 0 0 1 .72 2.72 5.36 5.36 0 0 1-.72 2.76 2.29 2.29 0 0 1-2.05 1.19h-10ZM63.14 45.19a22.48 22.48 0 0 1 8.43 1.46 16 16 0 0 1 5.69 3.69 13.71 13.71 0 0 1 3.19 5.27 19.83 19.83 0 0 1 1 6.21v20.77a2.93 2.93 0 0 1-1.54 2.47 6.71 6.71 0 0 1-3.82 1 5.85 5.85 0 0 1-3.53-1 3 3 0 0 1-1.42-2.47v-2.46a26 26 0 0 1-5.4 4.67 13.38 13.38 0 0 1-7.52 2 13 13 0 0 1-4.29-.68 9.36 9.36 0 0 1-3.49-2.08 10.22 10.22 0 0 1-2.38-3.53 12.93 12.93 0 0 1-.89-5 11.65 11.65 0 0 1 1.45-6.08 10.23 10.23 0 0 1 4-3.82 19.47 19.47 0 0 1 6.25-2 50.06 50.06 0 0 1 8.07-.6h3.49v-1.1a10.61 10.61 0 0 0-.38-2.76 6.79 6.79 0 0 0-1.25-2.5 7 7 0 0 0-2.29-1.83 7.7 7.7 0 0 0-3.53-.72 15.5 15.5 0 0 0-4 .42 19 19 0 0 0-2.56.9 15.91 15.91 0 0 0-1.69.89 2.74 2.74 0 0 1-1.45.42 3 3 0 0 1-2.8-1.78 7.73 7.73 0 0 1-.94-3.66 3.26 3.26 0 0 1 1.28-2.42 10.94 10.94 0 0 1 3.32-1.93 23.79 23.79 0 0 1 4.33-1.29 24.43 24.43 0 0 1 4.67-.46Zm7.31 23.55h-1.31c-1.41 0-2.79.06-4.12.17a13.6 13.6 0 0 0-3.48.74 5.86 5.86 0 0 0-2.47 1.62 4.14 4.14 0 0 0-.93 2.82 4.38 4.38 0 0 0 1.27 3.49 4.74 4.74 0 0 0 3.23 1.07 6.08 6.08 0 0 0 2.68-.68 9.54 9.54 0 0 0 2.55-1.82 9.88 9.88 0 0 0 1.87-2.64 6.87 6.87 0 0 0 .72-3ZM113.21 61.65l12.5 17.85a3.11 3.11 0 0 1 .59 1.79 3.72 3.72 0 0 1-.59 1.91 7 7 0 0 1-1.57 1.77 9.84 9.84 0 0 1-2 1.28 4.79 4.79 0 0 1-2.08.51 3.17 3.17 0 0 1-2.72-1.45L105.9 68.4l-5.27 4.84v9.35a3 3 0 0 1-1.65 2.38 7 7 0 0 1-4 1.11 6.29 6.29 0 0 1-3.84-1.11 3 3 0 0 1-1.49-2.38v-57a2.82 2.82 0 0 1 1.49-2.5 7.19 7.19 0 0 1 3.86-.93 8 8 0 0 1 4 .93 2.8 2.8 0 0 1 1.65 2.47v35.61l16-15a3.37 3.37 0 0 1 2.21-.85 4.28 4.28 0 0 1 1.83.47 6.25 6.25 0 0 1 1.74 1.23 7.51 7.51 0 0 1 1.28 1.7 3.87 3.87 0 0 1 .43 1.83 2.81 2.81 0 0 1-.94 2ZM149.08 86.84a18.35 18.35 0 0 1-7.18-1.4 18.93 18.93 0 0 1-5.86-3.79 17.8 17.8 0 0 1-4-5.53 15.49 15.49 0 0 1-1.44-6.54V49.19a3 3 0 0 1 1.61-2.38 6.74 6.74 0 0 1 3.93-1.11 6.59 6.59 0 0 1 3.83 1.11 3 3 0 0 1 1.61 2.38v20.4a6.85 6.85 0 0 0 .6 2.8 8.91 8.91 0 0 0 1.61 2.47 7.54 7.54 0 0 0 2.4 1.79 6.85 6.85 0 0 0 5.78 0 7.78 7.78 0 0 0 2.38-1.7 7.57 7.57 0 0 0 1.58-2.46 7.93 7.93 0 0 0 .55-2.85V49.1a2.87 2.87 0 0 1 1.66-2.38 7.2 7.2 0 0 1 3.86-1 6.9 6.9 0 0 1 4 1 2.9 2.9 0 0 1 1.48 2.38v20.49a15.49 15.49 0 0 1-1.44 6.59 18.21 18.21 0 0 1-4 5.48 19.09 19.09 0 0 1-5.9 3.78 18.13 18.13 0 0 1-7.06 1.4Z"/><path d="M157.78 44.03a22 22 0 0 0-2.15-1.38c-4.64-2.56-6.33-2.74-13.61-2.69-11.16-.7-16.69-4.14-16.69-4.14a25.52 25.52 0 0 0-5.13-1.69 21.49 21.49 0 0 0-3.93-.42h-1.56a32.35 32.35 0 0 1 3-2.6 8.12 8.12 0 0 1 3.2-2.73c.06 0-1.9-3.12-14-6.5-3.88-1.37-15.77-2.56-18.34-4.03a17.9 17.9 0 0 1-9.86-10.78 6.61 6.61 0 0 1-.44-3.52 14.83 14.83 0 0 0 5.45 5.19 4 4 0 0 1-1.58-1.09 4.34 4.34 0 0 1-.92-3.51c.28.6 4.14 4.88 5.12 5.07 0 0-1.82-1.52-1.39-3.33a31.48 31.48 0 0 0 12.94 8.26c8.07 2.62 8.86 3.1 8.86 3.1a86.66 86.66 0 0 0 15.39 3.69 9.11 9.11 0 0 1 4.3 3.07 3.87 3.87 0 0 0 2.17 1 29.44 29.44 0 0 1 10.28.53s11.7-11.83 28.12-13.88c-.3.16 23.35-4.91 30.12-11.6a23.74 23.74 0 0 1-1.36 2.22 22.67 22.67 0 0 1-7.55 6.83 22.633 22.633 0 0 0 3.1-.91 39 39 0 0 1-11.6 7.81 39 39 0 0 1-10.5 2.9 8 8 0 0 0 2.51 0s-18.19 7.75-17.59 12.82c.16 1.3 1.59 2.21 2.72 2.77a73.4 73.4 0 0 0 8 1.56c-1.38 1-5.12 2.6-7.25 2.37a11 11 0 0 0 3.83 1.95 11.52 11.52 0 0 1-5.58-.48s2.48 2.89 1.92 4.14Z"/></svg>