<svg xmlns="http://www.w3.org/2000/svg" viewBox="0 0 512.001 512.001" style="enable-background:new 0 0 512.001 512.001" xml:space="preserve"><path style="fill:#ffdeb7" d="M304.804 471.366h-97.621s-.75.059 0 10.159c1.162 15.661 21.854 30.476 48.81 30.476h.113c26.833 0 47.429-14.815 48.586-30.476.746-10.101.112-10.159.112-10.159z"/><path style="fill:#c3b9b1" d="M354.156 58.507c-18.553 20.358-16.332 52.114 4.695 69.906l49.66 42.019c6.031-89.424-2.604-144.821-10.071-153.797-7.105 3.132-24.593 20.266-44.284 41.872zM113.56 16.635c-7.469 8.976-16.104 64.373-10.071 153.797l49.66-42.019c21.027-17.791 23.247-49.547 4.695-69.906-19.69-21.606-37.179-38.74-44.284-41.872z"/><path style="fill:#ffebd2" d="M345.398 455.112c17.778-40.127 73.143-32.508 73.143-32.508v-24.381l48.762 32.508v-56.889l24.381 8.127c0-35.762-16.117-142.519-76.77-220.725-80.12-103.307-237.707-103.307-317.827 0-60.653 78.205-76.77 184.962-76.77 220.725l24.381-8.127v56.889l48.762-32.508v24.381s55.365-7.619 73.143 32.508l32.508-8.127h97.524l48.763 8.127z"/><path style="fill:#c3b9b1" d="m167.45 340.271 72.297 98.587V227.556H57.774C29.067 291.03 20.318 355.68 20.318 381.969l24.381-8.127v56.889c23.39-51.456 54.855-81.372 77.352-97.497 14.584-10.454 34.787-7.433 45.399 7.037zM344.551 340.271l-72.297 98.587V227.556h181.973c28.706 63.474 37.456 128.124 37.456 154.413l-24.381-8.127v56.889c-23.389-51.456-54.855-81.372-77.352-97.497-14.585-10.454-34.788-7.433-45.399 7.037z"/><path style="fill:#ffebd2" d="M296.636 308.826h-81.27c-8.635 46.642-32.508 81.104-32.508 133.706 0 32.186 24.381 44.586 40.635 44.586s32.508-7.625 32.508-7.625 16.254 7.625 32.508 7.625 40.635-12.4 40.635-44.586c0-52.602-23.874-87.064-32.508-133.706z"/><path style="fill:#878791" d="M424.508 174.396c5.017-72.953 1.717-151.509-14.685-169.34C405.98.877 401.902 0 399.163 0c-16.199 0-60.223 49.611-89.068 84.35l-.498-.169c-34.663-11.72-72.531-11.72-107.194 0l-.498.169C173.06 49.611 129.036 0 112.837 0c-2.738 0-6.818.877-10.659 5.056-16.402 17.832-19.703 96.386-14.685 169.34-52.77 76.589-67.176 173.778-67.176 207.573 43.475-99.372 105.935-132.295 132.973-142.297 7.619-2.818 15.658-4.139 23.794-3.976 12.839.257 23.343 10.426 24.948 23.166l21.46 170.242h65.016l21.459-170.242c1.606-12.74 12.11-22.91 24.949-23.166 8.136-.163 16.175 1.157 23.794 3.976 27.036 10.001 89.498 42.924 132.973 142.297.001-33.795-14.407-130.984-67.175-207.573zM113.56 16.635c7.105 3.132 24.593 20.266 44.284 41.872 7.547 8.281 11.639 18.447 12.434 28.794.486 6.314-2.723 12.249-8.16 15.496-23.3 13.911-43 31.725-59.565 51.745-4.049-80.074 3.992-129.475 11.007-137.907zm240.597 41.872c19.69-21.608 37.179-38.74 44.284-41.872 7.015 8.432 15.055 57.833 11.006 137.907-16.565-20.021-36.266-37.833-59.565-51.745-5.437-3.247-8.645-9.182-8.16-15.496.796-10.345 4.887-20.512 12.435-28.794z"/><circle style="fill:#464655" cx="174.731" cy="268.191" r="16.254"/><circle style="fill:#464655" cx="337.271" cy="268.191" r="16.254"/><path style="fill:#464655" d="M288.509 429.106c0 15.71-14.554 34.133-32.508 34.133s-32.508-18.424-32.508-34.133c0-15.71 14.554-22.756 32.508-22.756 17.953 0 32.508 7.046 32.508 22.756z"/></svg>