<svg xmlns="http://www.w3.org/2000/svg" width="242.313" height="238.969" version="1.0"><path d="M355.344 396.656c-20.231-1.59-40.73 10.287-52.125 34.281 22.522-13.188 56.356-5.597 56.062 29.625-32.754-2.317-80.946 8.84-52.812 106.407 6.856.891 13.762 1.79 21.406 2.468 10.044.892 20.656 1.58 31.531 2.063 9.285.412 18.797.573 28.281.656-17.608-26.28-43.714-65.715-18.093-97.312 24.728 14.245 46.08 16.495 59.562 12.687-8.692 14.21-18.89 21.269-36.656 26.656 9.136 29.086 24.687 43.078 42.125 56.782 5.697-.342 11.35-.716 16.75-1.219-34.96-19.43-48.01-34.384-54.781-52.813 25.17-7.987 30.788-16.72 40.5-33.093 3.158-2.003 5.37-4.481 6.469-7.188 9.746-23.994-30.358-75.454-88.22-80z" style="fill:#000;fill-opacity:1;fill-rule:evenodd;stroke:#000;stroke-width:1px;stroke-linecap:butt;stroke-linejoin:miter;stroke-opacity:1" transform="translate(-209.563 -333.688)"/><path d="m316.594 333.688-2.313 6.406-24.406 68.031-73.469.25h-6.844l5.188 4.469 55.75 47.844-23.656 65.78-2.563 7.126 6.375-4.125 41.156-26.75-2.78-4.281-34.813 22.625 21.687-60.282.594-1.656-1.344-1.156-51.844-44.531 68.375-.22h1.782l.625-1.687 22.687-63.281L334 392.406l4.75-1.875-19.688-50.5-2.468-6.344z" style="fill:#000;fill-opacity:1;fill-rule:evenodd;stroke:none;stroke-width:5.0999999;stroke-linecap:butt;stroke-linejoin:miter;stroke-miterlimit:4;stroke-opacity:1" transform="translate(-209.563 -333.688)"/></svg>