<svg width="32" height="32" xmlns="http://www.w3.org/2000/svg"><path d="M482.52 801.06c-50.612 78.813-134.92 22.584-157.45-16.793-22.526-39.377-84.255-103.91-84.255-103.91s-64.711-61.903-104.09-84.43c-39.436-22.468-95.663-106.9-16.909-157.57 78.754-50.669 137.85 14.042 242.05-56.228 104.15-70.328 170.26 7.021 170.26 7.021s77.173 65.94 6.846 170.09c-70.387 104.09-5.793 163.06-56.463 241.82zm120.18-352.7c27.09 49.089 99.232 61.084 161.19 26.856 61.903-34.17 90.163-101.63 63.073-150.72-27.09-49.091-99.232-61.084-161.19-26.856-61.903 34.17-90.163 101.63-63.073 150.72zm175.35 140.36c-21.706-51.664-92.153-71.322-157.39-43.883-65.239 27.441-100.52 91.51-78.754 143.11 21.765 51.605 92.153 71.322 157.39 43.882 65.238-27.44 100.46-91.449 78.753-143.11zM472.51 318.17c49.09 27.089 116.55-1.17 150.72-63.073s22.117-134.1-26.915-161.14c-49.03-27.032-116.55 1.17-150.72 63.073-34.169 61.904-22.173 134.05 26.915 161.14zm-239.54 60.849c51.664 21.708 115.73-13.574 143.11-78.754 27.382-65.18 7.781-135.68-43.883-157.39-51.663-21.707-115.73 13.575-143.11 78.754-27.441 65.237-7.782 135.68 43.881 157.39z"/></svg>